<svg width="932" height="100" viewBox="0 0 932 100" fill="none" xmlns="http://www.w3.org/2000/svg">
<path d="M318.994 14.6286C232.052 -8.2735 85.9397 3.8738 -31.854 44.0249V146.554H943.427V32.5532C928.228 26.1003 885.417 11.3304 835.766 3.87381C773.703 -5.44699 707.84 1.72285 590.046 28.9683C472.252 56.2137 446.92 48.3268 318.994 14.6286Z" fill="#F9A542"/>
<path d="M535.706 65.8152C444.95 34.4382 398.895 40.5607 210.612 92.6006C22.3283 144.64 -3.4082 14.5406 -105 71.1723L-105 161.477H980V78.1346C968.896 73.4171 937.62 62.6193 901.348 57.1679C856.007 50.3538 807.89 55.5954 721.836 75.5138C635.781 95.4321 623.672 96.2279 535.706 65.8152Z" fill="#EF6026"/>
<path d="M535.706 65.8152C444.95 34.4382 398.895 40.5607 210.612 92.6006C22.3283 144.64 -3.4082 14.5406 -105 71.1723L-105 161.477H980V78.1346C968.896 73.4171 937.62 62.6193 901.348 57.1679C856.007 50.3538 807.89 55.5954 721.836 75.5138C635.781 95.4321 623.672 96.2279 535.706 65.8152Z" fill="#EF6026"/>
</svg>
